<svg id="Icon_ionic-ios-home" data-name="Icon ionic-ios-home" xmlns="http://www.w3.org/2000/svg" width="16.577" height="16.572" viewBox="0 0 16.577 16.572">
  <path id="Path_14" data-name="Path 14" d="M13.223,7.292a.156.156,0,0,0-.2,0L6.81,12.264a.167.167,0,0,0-.06.123V21.55a.08.08,0,0,0,.08.08h4.3a.08.08,0,0,0,.08-.08V15.972a.08.08,0,0,1,.08-.08h3.665a.08.08,0,0,1,.08.08V21.55a.08.08,0,0,0,.08.08h4.3a.08.08,0,0,0,.08-.08V12.387a.161.161,0,0,0-.06-.123Z" transform="translate(-4.837 -5.057)" fill="#d89a56"/>
  <path id="Path_15" data-name="Path 15" d="M19.735,9.6,12.206,3.566a.874.874,0,0,0-1.092,0L7.836,6.231V4.55a.08.08,0,0,0-.08-.08H5.366a.08.08,0,0,0-.08.08V8.223l-1.7,1.4a.557.557,0,0,0-.048.833.554.554,0,0,0,.394.163.561.561,0,0,0,.351-.123l7.326-5.9a.071.071,0,0,1,.052-.016.1.1,0,0,1,.052.016l7.326,5.872a.561.561,0,0,0,.351.123A.565.565,0,0,0,19.95,10,.566.566,0,0,0,19.735,9.6Z" transform="translate(-3.374 -3.375)" fill="#d89a56"/>
</svg>
