<svg xmlns="http://www.w3.org/2000/svg" width="17.471" height="19.967" viewBox="0 0 17.471 19.967">
  <path id="Icon_awesome-calendar-alt" data-name="Icon awesome-calendar-alt" d="M0,18.095a1.872,1.872,0,0,0,1.872,1.872H15.6a1.872,1.872,0,0,0,1.872-1.872V7.487H0Zm12.479-7.643a.469.469,0,0,1,.468-.468h1.56a.469.469,0,0,1,.468.468v1.56a.469.469,0,0,1-.468.468h-1.56a.469.469,0,0,1-.468-.468Zm0,4.992a.469.469,0,0,1,.468-.468h1.56a.469.469,0,0,1,.468.468V17a.469.469,0,0,1-.468.468h-1.56A.469.469,0,0,1,12.479,17ZM7.487,10.451a.469.469,0,0,1,.468-.468h1.56a.469.469,0,0,1,.468.468v1.56a.469.469,0,0,1-.468.468H7.955a.469.469,0,0,1-.468-.468Zm0,4.992a.469.469,0,0,1,.468-.468h1.56a.469.469,0,0,1,.468.468V17a.469.469,0,0,1-.468.468H7.955A.469.469,0,0,1,7.487,17ZM2.5,10.451a.469.469,0,0,1,.468-.468h1.56a.469.469,0,0,1,.468.468v1.56a.469.469,0,0,1-.468.468H2.964a.469.469,0,0,1-.468-.468Zm0,4.992a.469.469,0,0,1,.468-.468h1.56a.469.469,0,0,1,.468.468V17a.469.469,0,0,1-.468.468H2.964A.469.469,0,0,1,2.5,17ZM15.6,2.5H13.727V.624A.626.626,0,0,0,13.1,0H11.855a.626.626,0,0,0-.624.624V2.5H6.24V.624A.626.626,0,0,0,5.616,0H4.368a.626.626,0,0,0-.624.624V2.5H1.872A1.872,1.872,0,0,0,0,4.368V6.24H17.471V4.368A1.872,1.872,0,0,0,15.6,2.5Z" fill="#d89a56"/>
</svg>
