<svg xmlns="http://www.w3.org/2000/svg" width="5.948" height="5.523" viewBox="0 0 5.948 5.523">
  <path id="Icon_ionic-ios-star" data-name="Icon ionic-ios-star" d="M7.972,5.287H6.019L5.426,3.516a.215.215,0,0,0-.4,0L4.429,5.287H2.462A.213.213,0,0,0,2.25,5.5a.156.156,0,0,0,0,.036.2.2,0,0,0,.089.15L3.948,6.816,3.332,8.608a.213.213,0,0,0,.073.239.205.205,0,0,0,.119.052.26.26,0,0,0,.133-.048L5.224,7.734,6.791,8.851a.249.249,0,0,0,.133.048.191.191,0,0,0,.118-.052.21.21,0,0,0,.073-.239L6.5,6.816,8.091,5.675l.039-.033a.2.2,0,0,0-.157-.355Z" transform="translate(-2.25 -3.375)" fill="#fa0"/>
</svg>
